<?xml version="1.0" standalone="no"?>
<!DOCTYPE svg PUBLIC "-//W3C//DTD SVG 20010904//EN"
 "http://www.w3.org/TR/2001/REC-SVG-20010904/DTD/svg10.dtd">
<svg version="1.0" xmlns="http://www.w3.org/2000/svg"
 width="390.000000pt" height="400.000000pt" viewBox="0 0 390.000000 400.000000"
 preserveAspectRatio="xMidYMid meet">

<g transform="translate(0.000000,400.000000) scale(0.100000,-0.100000)"
fill="#000000" stroke="none">
<path d="M1650 3903 c-254 -39 -404 -85 -590 -179 -168 -86 -291 -176 -430
-314 -223 -221 -362 -454 -446 -742 -54 -189 -67 -281 -67 -483 -1 -228 29
-403 102 -603 37 -101 102 -232 115 -232 6 0 515 504 1131 1120 l1120 1120
135 2 135 3 -72 47 c-197 129 -437 219 -673 253 -95 13 -393 19 -460 8z"/>
<path d="M3250 2163 l0 -1038 26 38 c42 62 139 256 179 355 187 475 174 964
-39 1408 -47 98 -151 274 -162 274 -2 0 -4 -467 -4 -1037z"/>
<path d="M1670 1824 l-955 -955 40 -35 c22 -20 83 -65 137 -100 501 -332 1147
-380 1692 -125 148 69 238 116 266 140 l25 20 -117 1 -118 0 0 188 0 187 -295
295 -295 295 292 5 293 5 3 518 c1 284 -1 517 -5 516 -5 -1 -438 -431 -963
-955z"/>
<path d="M2870 1091 c-105 -34 -187 -135 -193 -238 l-2 -38 74 0 74 0 14 41
c18 54 52 84 102 91 36 5 44 2 76 -30 28 -28 35 -43 35 -74 0 -78 -41 -137
-216 -309 l-163 -161 57 -56 58 -57 161 0 161 0 71 68 c39 37 71 71 71 75 0 4
-67 7 -150 7 -82 0 -150 4 -150 8 0 4 18 26 41 47 57 56 156 180 179 226 37
71 52 148 40 206 -15 69 -62 137 -117 170 -37 21 -61 27 -122 29 -42 2 -87 0
-101 -5z"/>
<path d="M3297 933 c-4 -3 -7 -118 -7 -255 l0 -248 80 0 79 0 3 103 3 102 72
-106 c40 -59 69 -109 66 -113 -4 -3 -74 -6 -156 -6 l-149 0 -69 -67 c-38 -36
-69 -70 -69 -74 0 -5 30 -9 68 -11 l67 -3 3 -83 3 -83 77 3 77 3 3 75 c2 44 8
78 15 82 7 4 85 8 173 8 l162 0 6 32 c8 41 -3 129 -19 148 -7 8 -84 121 -171
250 -87 129 -163 238 -168 242 -14 10 -140 10 -149 1z"/>
</g>
</svg>
