<svg width="41" height="46" viewBox="0 0 41 46" fill="none" xmlns="http://www.w3.org/2000/svg">
  <path
    d="M20.2944 44C24.9336 44 28.6944 42.7464 28.6944 41.2C28.6944 39.6536 24.9336 38.4 20.2944 38.4C15.6552 38.4 11.8944 39.6536 11.8944 41.2C11.8944 42.7464 15.6552 44 20.2944 44Z"
    fill="#333333"
    fill-opacity="0.2"
  />
  <g filter="url(#filter0_d_426_2)">
    <path
      d="M3.49438 18.8C3.49438 9.52162 11.016 2 20.2944 2C29.5728 2 37.0944 9.52162 37.0944 18.8C37.0944 25.7686 32.5636 31.8698 26.5203 34.4141C22.4721 36.1185 21.0698 39.3317 20.5909 40.6024C20.5208 40.7881 20.403 41.1953 20.2944 41.1953C20.1858 41.1953 20.051 40.7882 19.9979 40.6024C19.6349 39.3309 18.227 36.3352 13.9697 34.4141C7.87583 31.6643 3.49438 25.8679 3.49438 18.8Z"
      fill="white"
    />
  </g>
  <path
    fill-rule="evenodd"
    clip-rule="evenodd"
    d="M6.29443 18.8117C6.29443 11.239 12.5624 5.1 20.2944 5.1C28.0264 5.1 34.2944 11.239 34.2944 18.8117C34.2944 24.4993 30.5188 29.479 25.4827 31.5556C22.1092 32.9466 21.098 35.579 20.6989 36.6161C20.6405 36.7676 20.5433 37.1 20.2944 37.1C20.0455 37.1 19.9342 36.7677 19.89 36.6161C19.5875 35.5783 18.5716 33.1235 15.0238 31.5556C9.94564 29.3113 6.29443 24.5803 6.29443 18.8117Z"
    fill="#FE8C06"
  />
  <path
    d="M18.0218 11.9756C17.8195 10.3973 19.0491 9 20.6403 9C22.2316 9 23.4612 10.3973 23.2589 11.9756L22.1432 20.6775C22.0463 21.4336 21.4027 22 20.6403 22C19.878 22 19.2344 21.4336 19.1375 20.6775L18.0218 11.9756Z"
    fill="white"
  />
  <path
    d="M22.6403 27C22.6403 28.1046 21.7449 29 20.6403 29C19.5358 29 18.6403 28.1046 18.6403 27C18.6403 25.8954 19.5358 25 20.6403 25C21.7449 25 22.6403 25.8954 22.6403 27Z"
    fill="white"
  />
  <defs>
    <filter
      id="filter0_d_426_2"
      x="0.494385"
      y="0"
      width="39.6"
      height="45.1953"
      filterUnits="userSpaceOnUse"
      color-interpolation-filters="sRGB"
    >
      <feFlood flood-opacity="0" result="BackgroundImageFix" />
      <feColorMatrix
        in="SourceAlpha"
        type="matrix"
        values="0 0 0 0 0 0 0 0 0 0 0 0 0 0 0 0 0 0 127 0"
        result="hardAlpha"
      />
      <feOffset dy="1" />
      <feGaussianBlur stdDeviation="1.5" />
      <feColorMatrix type="matrix" values="0 0 0 0 0 0 0 0 0 0 0 0 0 0 0 0 0 0 0.1 0" />
      <feBlend mode="normal" in2="BackgroundImageFix" result="effect1_dropShadow_426_2" />
      <feBlend mode="normal" in="SourceGraphic" in2="effect1_dropShadow_426_2" result="shape" />
    </filter>
  </defs>
</svg>
