<svg width="131" height="37" viewBox="0 0 131 37" fill="none" xmlns="http://www.w3.org/2000/svg">
<path d="M43.4265 4.19199C46.8325 4.19199 50.2385 4.19199 53.6445 4.19199C56.1335 4.32299 58.819 4.97799 60.522 6.87749C61.8975 8.31849 62.487 10.349 62.618 12.314C62.6835 14.0825 62.618 15.7855 62.6835 17.554C62.6835 18.864 62.618 20.174 62.2905 21.484C61.7665 23.449 60.391 25.2175 58.557 26.069C56.854 26.9205 54.889 27.1825 52.9895 27.248C50.959 27.248 48.863 27.248 46.8325 27.248C46.898 29.213 46.8325 31.178 46.898 33.143C46.9635 33.9945 46.7015 34.977 46.0465 35.5665C45.3915 36.287 44.409 36.549 43.4265 36.4835C43.4265 25.676 43.4265 14.934 43.4265 4.19199ZM46.8325 7.00849C46.8325 12.7725 46.8325 18.602 46.8325 24.366C47.6185 24.366 48.4045 24.366 49.256 24.366C51.09 24.366 52.924 24.497 54.758 24.0385C56.068 23.711 57.378 23.187 58.2295 22.0735C59.212 20.829 59.343 19.1915 59.343 17.685C59.343 15.982 59.4085 14.2135 59.2775 12.445C59.212 10.9385 58.557 9.43199 57.378 8.51499C55.937 7.40149 53.972 7.07399 52.2035 7.00849C50.3695 7.00849 48.601 7.00849 46.8325 7.00849ZM67.7925 6.61549C69.6265 4.97799 72.05 4.12649 74.4735 4.12649C76.897 4.06099 79.4515 4.58499 81.4165 6.09149C83.185 7.40149 84.2985 9.49749 84.364 11.659C84.4295 13.1 84.364 14.4755 84.364 15.9165C79.124 15.9165 73.8185 15.9165 68.5785 15.9165C68.5785 17.3575 68.513 18.7985 68.775 20.174C69.037 21.353 69.692 22.532 70.6745 23.2525C71.919 24.235 73.622 24.366 75.1285 24.4315C78.0105 24.4315 80.8925 24.4315 83.7745 24.4315C83.7745 25.938 82.399 27.248 80.8925 27.248C78.862 27.248 76.8315 27.248 74.8665 27.248C72.836 27.1825 70.74 26.986 68.906 25.938C67.465 25.2175 66.417 23.973 65.8275 22.4665C65.0415 20.567 65.1725 18.5365 65.1725 16.506C65.238 14.934 65.107 13.362 65.238 11.79C65.3035 9.82499 66.3515 7.92549 67.7925 6.61549ZM69.561 9.30099C68.8405 10.4145 68.513 11.7245 68.513 13.0345C72.6395 13.0345 76.766 13.0345 80.8925 13.0345C80.958 11.135 80.2375 9.16999 78.6655 8.05649C77.29 7.00849 75.456 6.81199 73.753 6.94299C72.1155 7.00849 70.5435 7.92549 69.561 9.30099ZM88.7525 4.65049C89.342 4.25749 90.128 4.19199 90.783 4.19199C92.617 4.19199 94.451 4.19199 96.285 4.19199C98.7085 4.12649 101.263 4.32299 103.293 5.76399C104.996 6.94299 105.782 8.97349 105.913 10.873C105.979 11.921 105.979 12.9035 105.979 13.9515V27.117C102.049 27.117 98.1845 27.117 94.2545 27.117C92.355 27.117 90.39 26.855 88.818 25.807C87.5735 24.9555 86.853 23.5145 86.722 22.008C86.6565 20.829 86.722 19.7155 86.6565 18.5365C86.591 17.161 87.115 15.6545 88.2285 14.7375C89.6695 13.493 91.7 13.1 93.534 13.1C96.547 13.1 99.56 13.1 102.573 13.1C102.573 11.921 102.639 10.611 102.049 9.49749C101.459 8.31849 100.28 7.59799 99.036 7.27049C98.119 7.00849 97.1365 7.00849 96.2195 7.07399C93.2065 7.07399 90.259 7.07399 87.3115 7.07399C87.4425 6.09149 87.9665 5.10899 88.7525 4.65049ZM92.748 16.113C92.0275 16.244 91.307 16.506 90.8485 17.03C90.3245 17.685 90.1935 18.602 90.1935 19.4535C90.1935 20.436 90.0625 21.484 90.4555 22.401C90.7175 23.1215 91.438 23.58 92.1585 23.7765C93.272 24.1695 94.5165 24.1695 95.6955 24.1695C98.0535 24.1695 100.346 24.1695 102.704 24.1695C102.704 21.4185 102.704 18.6675 102.704 15.9165H95.8265C94.7785 15.9165 93.7305 15.851 92.748 16.113ZM117.834 4.19199C122.223 4.19199 126.612 4.19199 131 4.19199C131.065 11.8555 131 19.519 131 27.117C129.886 27.117 128.708 27.117 127.594 27.117C127.594 20.436 127.594 13.6895 127.594 7.00849H118.489C118.293 7.00849 118.031 7.07399 117.834 7.13949C117.703 7.40149 117.573 7.72899 117.573 8.05649C117.245 12.1175 116.918 16.244 116.59 20.305C116.394 22.27 115.804 24.3005 114.232 25.545C112.66 26.855 110.433 27.1825 108.468 27.117C108.468 26.069 108.992 24.89 110.04 24.497C110.957 24.1695 111.874 23.711 112.464 22.9905C113.118 22.2045 113.381 21.1565 113.446 20.174C113.708 17.03 113.97 13.886 114.232 10.742C114.363 9.43199 114.429 8.05649 114.691 6.74649C114.822 5.96049 115.28 5.17449 115.935 4.71599C116.459 4.32299 117.179 4.19199 117.834 4.19199Z" fill="#232021"/>
<path d="M10.349 12.7725C10.349 6.02602 14.803 6.22252 14.803 6.22252H25.8725V4.19202H14.803C4.3885 4.19202 4.061 12.7725 4.061 12.7725V36.287H10.349V12.7725ZM32.1605 4.19202H36.2215V6.22252H32.1605V4.19202Z" fill="#157DC2"/>
<path d="M0 30.0645H4.061V32.095H0V30.0645ZM25.8725 0V23.449C25.8725 30.1955 21.4185 29.999 21.4185 29.999H10.349V32.095H21.4185C31.833 32.095 32.1605 23.449 32.1605 23.449V0H25.8725Z" fill="#DC1F27"/>
</svg>