<svg xmlns="http://www.w3.org/2000/svg" style="display: none;">
    <!-- Иконка поиска -->
    <symbol id="icon-search" viewBox="0 0 24 24" fill="none" stroke="currentColor" stroke-width="2" stroke-linecap="round" stroke-linejoin="round">
        <circle cx="11" cy="11" r="8"></circle>
        <line x1="21" y1="21" x2="16.65" y2="16.65"></line>
    </symbol>

    <!-- Иконка VK -->
    <symbol id="icon-vk" viewBox="0 0 18 11">
        <path d="M17.9998 0.500001C17.9998 0.6 17.9998 0.7 17.9998 0.8C17.7998 1.8 15.9998 4.5 15.3998 5.3C15.2998 5.4 15.1998 5.4 15.1998 5.4C15.0998 5.9 14.9998 6.1 14.9998 6.2C14.9998 6.3 14.9998 6.5 15.1998 6.7C15.3998 7 15.8998 7.6 16.2998 8.1C17.0998 9.1 17.7998 10.2 17.8998 10.6C17.8998 10.7 17.8998 10.8 17.8998 10.9C17.8998 11.3 17.5998 11.5 17.1998 11.5H15.1998C14.6998 11.5 14.3998 11.1 13.8998 10.4C13.6998 10.1 13.3998 9.7 12.9998 9.2C11.8998 7.9 11.2998 7.7 10.9998 7.7C10.5998 7.7 10.4998 7.8 10.4998 8.4V10.6C10.4998 11.1 10.3998 11.4 8.9998 11.4C6.8998 11.4 4.5998 10 2.7998 7.6C2.3998 7.1 1.9998 4.2 1.9998 3.7C1.9998 3.4 2.0998 3.1 2.6998 3.1H4.6998C5.1998 3.1 5.3998 3.3 5.5998 3.9C6.3998 6.9 7.6998 9.1 8.3998 9.1C8.5998 9.1 8.7998 9 8.79C8.7998 8.3 8.7998 5.6 8.7998 4.2C8.7998 3.3 8.4998 3 8.2998 2.7C8.0998 2.5 7.9998 2.4 7.9998 2.2C7.9998 1.9 8.1998 1.7 8.4998 1.7H11.9998C12.3998 1.7 12.4998 1.9 12.4998 2.5V5.6C12.4998 6 12.7998 6.2 12.9998 6.2C12.9998 6.2 12.9998 6.2 12.9998 6.2C13.1998 6.2 13.4998 6.2 13.8998 5.7C15.2998 4 16.4998 1.5 16.4998 1.5C16.6998 1 16.8998 0.7 17.3998 0.7H17.8998C17.7998 0.7 17.9998 0.9 17.9998 0.500001Z" fill-rule="evenodd" clip-rule="evenodd"/>
    </symbol>

    <!-- Иконка Telegram -->
    <symbol id="icon-tg" viewBox="0 0 24 24">
        <path d="M21.4451 3.11131C22.2551 2.81131 22.9651 3.53131 22.7251 4.34131L19.9351 15.4013C19.7251 16.1213 19.0651 16.5113 18.3451 16.2613L13.2051 14.4813L11.1651 16.4713C10.9151 16.7213 10.5851 16.8813 10.2351 16.8813L10.5951 11.8313L18.4951 4.57131C18.7851 4.31131 18.3951 4.18131 18.0251 4.41131L8.39513 10.5213L3.80513 9.04131C3.04513 8.79131 2.98513 7.82131 3.70513 7.50131L20.2551 1.16131C20.8451 0.931311 21.4451 3.11131 21.4451 3.11131Z"/>
    </symbol>

    <!-- Иконка Одноклассники -->
    <symbol id="icon-ok" viewBox="0 0 12 21">
        <path d="M11.1 13.8C10.2 14.4 9.2 14.8 8.1 15.1L11.1 18.1C11.7 18.8 11.7 19.7 11.1 20.3C10.4 20.9 9.5 20.9 8.9 20.3L6 17.4L3 20.3C2.7 20.6 2.3 20.7 1.9 20.7C1.5 20.7 1.1 20.6 0.8 20.3C0.2 19.6 0.2 18.7 0.8 18.1L3.8 15.1C2.8 14.9 1.7 14.4 0.8 13.8C0.1 13.4 -0.2 12.4 0.2 11.7C0.6 11 1.6 10.7 2.3 11.1C4.4 12.4 7.3 12.4 9.4 11.1C10.1 10.7 11.1 10.9 11.5 11.6C11.9 12.4 11.8 13.4 11.1 13.8Z"/>
        <path d="M5.9 0C3 0 0.7 2.3 0.7 5.2C0.7 8.1 3 10.4 5.9 10.4C8.8 10.4 11.1 8.1 11.1 5.2C11.1 2.3 8.8 0 5.9 0ZM5.9 7.4C4.6 7.4 3.7 6.4 3.7 5.2C3.7 4 4.7 3 5.9 3C7.1 3 8.1 4 8.1 5.2C8.1 6.4 7.2 7.4 5.9 7.4Z"/>
    </symbol>

    <!-- Иконка Спидометр -->
    <symbol id="icon-speedometer" viewBox="0 0 24 24">
        <path d="M12 2C6.48 2 2 6.48 2 12s4.48 10 10 10 10-4.48 10-10S17.52 2 12 2zm0 18c-4.41 0-8-3.59-8-8s3.59-8 8-8 8 3.59 8 8-3.59 8-8 8zm-2-8l-4-4 1.41-1.41L12 11.17l4.59-4.58L18 8l-6 6z"/>
    </symbol>

    <!-- Иконка Шестеренка -->
    <symbol id="icon-cogwheel" viewBox="0 0 24 24">
        <path d="M19.43 12.98c.04-.32.07-.64.07-.98s-.03-.66-.07-.98l2.11-1.65c.19-.15.24-.42.12-.64l-2-3.46c-.12-.22-.39-.3-.61-.22l-2.49 1c-.52-.4-1.08-.73-1.69-.98l-.38-2.65C14.46 2.18 14.25 2 14 2h-4c-.25 0-.46.18-.49.42l-.38 2.65c-.61.25-1.17.59-1.69.98l-2.49-1c-.22-.08-.49 0-.61.22l-2 3.46c-.13.22-.07.49.12.64l2.11 1.65c-.04.32-.07.65-.07.98s.03.66.07.98l-2.11 1.65c-.19.15-.24.42-.12.64l2 3.46c.12.22.39.3.61.22l2.49-1c.52.4 1.08.73 1.69.98l.38 2.65c.03.24.24.42.49.42h4c.25 0 .46-.18.49-.42l.38-2.65c.61-.25 1.17-.59 1.69-.98l2.49 1c.22.08.49 0 .61-.22l2-3.46c.12-.22.07-.49-.12-.64l-2.11-1.65zM12 15.5c-1.93 0-3.5-1.57-3.5-3.5s1.57-3.5 3.5-3.5 3.5 1.57 3.5 3.5-1.57 3.5-3.5 3.5z"/>
    </symbol>

    <!-- Иконка Роутер -->
    <symbol id="icon-router" viewBox="0 0 24 24">
        <path d="M20.2 5.9l.8-3.2c.1-.4-.2-.8-.6-.8H3.6c-.4 0-.7.3-.6.8l.8 3.2C2.1 6.4 1 8.1 1 10v2c0 1.1.9 2 2 2h18c1.1 0 2-.9 2-2v-2c0-1.9-1.1-3.6-2.8-4.1zM4.8 4h14.4l-.6 2.4C18.1 6.8 17.6 7 17 7H7c-.6 0-1.1-.2-1.6-.6L4.8 4zM21 12H3v-2c0-1.6 1.2-3 2.8-3.2l.2.8c.1.4.4.6.8.6h8.4c.4 0 .7-.2.8-.6l.2-.8C17.8 7 19 8.4 19 10v2h2v-2z"/><path d="M8 18c0-1.1-.9-2-2-2s-2 .9-2 2 .9 2 2 2 2-.9 2-2zm8 0c0-1.1-.9-2-2-2s-2 .9-2 2 .9 2 2 2 2-.9 2-2z"/>
    </symbol>

    <!-- Иконка Рубль -->
    <symbol id="icon-ruble" viewBox="0 0 16 16">
        <path d="M2.5 1.5a.5.5 0 0 1 .5.5v2h8a.5.5 0 0 1 .5.5v1h-2.5a.5.5 0 0 0 0 1h2.5v1h-11a.5.5 0 0 1 0-1h11v-1a.5.5 0 0 0-.5-.5h-8v-2a.5.5 0 0 1-.5-.5z"/>
        <path d="M6.5 1.5a.5.5 0 0 1 .5.5v13a.5.5 0 0 1-1 0v-13a.5.5 0 0 1 .5-.5z"/>
    </symbol>
</svg>
